PathFileType	4	(X/Y/Z)	c:/Users/goper/Files/vsCode/490R/osim_files/A06/A06_Fast_05.trc
DataRate	CameraRate	NumFrames	NumMarkers	Units                	OrigDataRate	OrigDataStartFrame	OrigNumFrames
120.00	120.00	6	36	mm	120.0	1003	1336
                Frame#	Time	LPSIS			LASIS			LTH1			LTH2			LTH3			LTH4			LLFE			LMFE			LSH1			LSH2			LSH3			LSH4			LLMAL			LMMAL			LCAL			LMTP5			LTOE			LMTP1			RPSIS			RASIS			RTH1			RTH2			RTH3			RTH4			RLFE			RMFE			RSH1			RSH2			RSH3			RSH4			RLMAL			RMMAL			RCAL			RMTP1			RTOE			RMTP5		
		X1	Y1	Z1	X2	Y2	Z2	X3	Y3	Z3	X4	Y4	Z4	X5	Y5	Z5	X6	Y6	Z6	X7	Y7	Z7	X8	Y8	Z8	X9	Y9	Z9	X10	Y10	Z10	X11	Y11	Z11	X12	Y12	Z12	X13	Y13	Z13	X14	Y14	Z14	X15	Y15	Z15	X16	Y16	Z16	X17	Y17	Z17	X18	Y18	Z18	X19	Y19	Z19	X20	Y20	Z20	X21	Y21	Z21	X22	Y22	Z22	X23	Y23	Z23	X24	Y24	Z24	X25	Y25	Z25	X26	Y26	Z26	X27	Y27	Z27	X28	Y28	Z28	X29	Y29	Z29	X30	Y30	Z30	X31	Y31	Z31	X32	Y32	Z32	X33	Y33	Z33	X34	Y34	Z34	X35	Y35	Z35	X36	Y36	Z36

1003	8.35000	-3804.83398	975.97919	437.87473	-4001.51221	929.04791	501.31885	-3909.22974	554.21021	540.80835	-3915.27954	510.33716	534.29877	-3974.17651	551.38470	534.50269	-3969.22559	509.44437	532.78101	-3933.60229	436.65030	525.64233	-3854.81714	355.67847	519.90674	0.00000	0.00000	0.00000	-3799.13672	386.98315	545.29065	0.00000	0.00000	0.00000	-3831.67017	341.50668	533.77814	-3595.98071	231.70691	507.68088	-3615.82764	222.03209	425.11847	-3564.26172	289.22934	461.34866	-3589.78833	101.81368	515.94354	-3626.00537	78.40826	461.58124	-3609.79736	99.05123	424.42462	0.00000	0.00000	0.00000	-3985.88306	964.06610	244.29565	-3910.04443	578.15039	215.11539	-3922.72314	536.32782	215.36333	-3970.99414	588.27966	221.62347	-3973.95557	543.33978	220.46509	-3962.72046	427.32925	248.33943	-3967.94849	434.09149	335.82706	-3966.65454	273.01877	268.60703	0.00000	0.00000	0.00000	-4024.55835	277.35443	278.62393	-4025.30225	229.17027	277.07144	-3996.84106	99.09420	271.99063	-4011.43286	109.36146	355.06839	-3942.18262	82.47507	322.06622	-4144.18213	65.20554	346.98804	-4157.97021	76.39194	305.30087	-4129.87207	55.99365	259.35709
1004	8.35833	-3814.44556	978.46167	436.98306	-4010.80737	931.32440	501.54886	-3931.40576	554.21112	540.05615	-3938.02563	512.65527	534.96051	-3992.91821	554.50494	533.30420	-3989.27881	512.35925	531.51740	-3955.71655	439.30045	524.10181	0.00000	0.00000	0.00000	0.00000	0.00000	0.00000	-3820.99194	389.12866	543.12012	0.00000	0.00000	0.00000	-3854.16797	344.77271	532.15778	-3618.59155	235.33688	507.48859	-3637.36328	225.93893	424.60889	-3584.53613	291.92276	461.35489	-3616.01709	105.48673	516.07184	-3651.94800	82.50094	461.34402	-3634.66113	102.82146	424.30579	0.00000	0.00000	0.00000	-3996.10400	965.49847	244.37421	-3916.43750	579.70563	215.20793	-3928.64136	537.82275	215.39966	-3977.66602	589.23077	221.67899	-3980.06055	544.21545	220.54411	-3967.32422	428.31326	248.36089	-3971.29346	435.12759	335.19705	-3969.45190	273.98953	268.66150	0.00000	0.00000	0.00000	-4027.36255	277.62665	278.69656	-4027.65942	229.53372	277.15756	-3997.31641	99.45328	272.13638	-4012.03711	109.58253	355.20108	-3942.47998	82.88892	322.20813	-4144.45215	64.66273	347.12424	-4158.33252	75.81427	305.48450	-4130.30273	55.93677	259.56424
1005	8.36667	0.00000	0.00000	0.00000	-4020.01172	933.52026	501.95114	-3949.97656	556.64215	538.54175	-3957.90503	515.23572	533.41992	-4011.75952	558.21606	532.11951	-4009.26929	515.78510	530.18787	-3977.70728	443.27420	522.79962	-3983.58594	438.51602	409.54056	0.00000	0.00000	0.00000	-3843.75366	392.80634	541.75281	-3914.35425	375.96884	529.10364	0.00000	0.00000	0.00000	-3641.20459	236.13797	505.75916	-3659.90527	228.29456	423.96643	-3604.75024	292.50504	462.72116	-3642.41479	107.79377	516.05096	-3678.37012	85.31764	461.11871	-3660.23999	105.12795	424.10950	0.00000	0.00000	0.00000	-4006.45825	966.80664	244.66338	-3922.79688	581.30115	215.38853	-3934.46167	539.34747	215.52354	-3984.22217	590.11682	221.81430	-3986.05127	545.04810	220.66124	-3971.87109	428.95157	246.01949	-3977.25806	436.03210	336.01083	-3972.13672	274.94955	268.76706	0.00000	0.00000	0.00000	-4030.20190	277.98471	278.81778	-4029.84570	229.82965	277.23676	-3997.80762	99.89433	272.32166	-4012.54102	109.77940	355.40527	-3941.88745	82.00508	319.59708	-4144.76270	64.14799	347.27826	-4158.68066	75.33057	305.68320	-4130.78174	55.95967	259.74393
1006	8.37500	-3833.37134	983.55621	434.88715	-4029.10059	935.74188	502.40710	-3968.52393	559.77698	537.32617	-3977.60474	518.46466	532.09790	-4029.69727	563.91547	530.44116	-4029.21240	519.52740	528.93170	-3999.31812	447.73483	521.55859	0.00000	0.00000	0.00000	0.00000	0.00000	0.00000	0.00000	0.00000	0.00000	-3932.52686	375.61630	524.10864	0.00000	0.00000	0.00000	-3664.62646	237.04236	505.19739	-3683.36548	229.34497	423.37280	-3627.67285	292.97287	460.15411	-3669.02881	108.83102	515.92676	-3705.39087	87.07518	461.01459	-3686.80322	106.32211	423.93167	0.00000	0.00000	0.00000	-4016.64746	968.00092	245.04477	0.00000	0.00000	0.00000	-3941.45337	541.07050	214.86821	-3990.70166	590.95709	222.03795	-3992.06665	545.90955	220.87877	-3976.41528	429.84998	246.26166	-3980.08472	435.70370	336.82053	-3974.71289	276.02155	267.89426	0.00000	0.00000	0.00000	-4033.02539	278.34518	278.96564	-4032.14575	230.19978	277.37457	-3998.24780	100.31944	272.54037	-4013.06909	109.99792	355.61728	-3942.14746	82.38371	319.79721	-4145.00732	63.72003	347.43048	-4159.02246	74.88082	305.84201	-4131.15430	55.98160	259.79037
1007	8.38333	-3842.03491	984.94012	432.83908	-4038.10352	937.92743	502.84421	-3986.87549	563.19843	536.34216	-3997.07520	521.99280	531.11182	-4048.06299	568.98376	529.19348	-4047.58398	526.51904	525.47198	-4020.79468	452.19388	520.56250	-4024.86670	447.69290	406.61023	-3921.78857	427.09952	535.97620	0.00000	0.00000	0.00000	0.00000	0.00000	0.00000	-3923.66797	353.38257	528.25433	-3688.22461	236.71375	504.58160	-3707.49097	229.40829	422.69754	-3649.97461	291.63663	459.14935	-3696.22852	108.97639	515.71191	-3733.52954	88.05124	461.09607	-3714.54370	106.61894	423.83386	0.00000	0.00000	0.00000	-4026.93311	969.13452	245.50894	0.00000	0.00000	0.00000	-3948.26245	542.50995	215.06676	-3997.23999	591.84070	222.28473	-3998.04004	546.75372	221.14964	-3981.76831	431.75583	246.06381	-3986.43457	437.91196	336.40292	-3977.58032	276.92484	269.09778	0.00000	0.00000	0.00000	-4035.77612	278.66467	279.15845	-4034.37622	230.58208	277.54248	-3998.58862	100.69324	272.78702	-4013.58691	110.23116	355.81216	-3943.29004	83.99875	322.89572	-4145.23389	63.30692	347.56079	-4159.28076	74.46801	305.98557	-4131.43115	55.99496	259.95053
1008	8.39167	0.00000	0.00000	0.00000	-4047.06445	940.02283	503.26413	-4004.86011	566.72131	535.64215	-4016.42139	525.75403	530.42456	-4065.88257	574.00195	528.21558	-4066.59717	531.60645	524.53345	-4041.84302	456.29108	519.76569	0.00000	0.00000	0.00000	0.00000	0.00000	0.00000	0.00000	0.00000	0.00000	0.00000	0.00000	0.00000	-3947.04248	355.24142	527.20697	-3712.21777	235.32469	503.83145	-3732.24365	228.43874	421.97110	-3672.55933	288.93860	457.97375	-3724.28369	108.09414	515.45862	-3762.74561	88.35355	461.21686	-3743.51904	106.12579	423.71335	0.00000	0.00000	0.00000	-4037.09424	970.23608	245.93079	0.00000	0.00000	0.00000	-3954.01807	543.28937	214.97185	-4003.70386	592.63867	222.57651	-4003.93750	547.50903	221.41252	-3986.82446	433.83261	247.25240	-3992.69312	438.80585	336.60840	-3980.17700	278.02991	268.20370	0.00000	0.00000	0.00000	-4038.45361	278.94809	279.35294	-4036.57275	230.95290	277.69711	-3998.95288	101.09369	273.01578	-4014.08911	110.44025	356.00925	-3943.51367	84.26172	323.14154	-4145.43066	62.93259	347.66721	-4159.54932	74.10825	306.10675	-4131.73340	56.01796	260.07593
